<svg width="13" height="13" viewBox="0 0 13 13" fill="none" xmlns="http://www.w3.org/2000/svg">
<path d="M6.32654 0.15409C6.35094 -0.0513633 6.64906 -0.0513633 6.67346 0.15409L6.87797 1.87766C7.14205 4.10325 8.89675 5.85796 11.1223 6.12203L12.8459 6.32654C13.0514 6.35094 13.0514 6.64906 12.8459 6.67346L11.1223 6.87797C8.89675 7.14205 7.14205 8.89675 6.87797 11.1223L6.67346 12.8459C6.64906 13.0514 6.35094 13.0514 6.32654 12.8459L6.12203 11.1223C5.85796 8.89675 4.10325 7.14205 1.87766 6.87797L0.15409 6.67346C-0.0513633 6.64906 -0.0513633 6.35094 0.15409 6.32654L1.87766 6.12203C4.10325 5.85796 5.85796 4.10325 6.12203 1.87766L6.32654 0.15409Z" fill="white"/>
</svg>
